<svg xmlns="http://www.w3.org/2000/svg" version="1.1" xmlns:xlink="http://www.w3.org/1999/xlink" width="5000" height="5000"><svg xmlns="http://www.w3.org/2000/svg" version="1.1" xmlns:xlink="http://www.w3.org/1999/xlink" width="5000" height="5000"><svg xmlns="http://www.w3.org/2000/svg" xmlns:xlink="http://www.w3.org/1999/xlink" width="5000" zoomAndPan="magnify" viewBox="0 0 3750 3749.999967" height="5000" preserveAspectRatio="xMidYMid meet" version="1.0"><defs><g></g><clipPath id="d416edb73c"><rect x="0" width="2637" y="0" height="2377"></rect></clipPath></defs><g transform="matrix(1, 0, 0, 1, 565, 686)"><g clip-path="url(#d416edb73c)"><g fill="#000000" fill-opacity="1"><g transform="translate(131.560197, 1798.178186)"><g><path d="M 1340.929688 -284.628906 L 1340.929688 157.285156 L 477.925781 157.285156 L 477.925781 -441.914062 L 708.105469 -441.914062 L 708.105469 -284.628906 L 550.820312 -284.628906 L 550.820312 -569.261719 C 550.820312 -572.417969 550.703125 -574.96875 550.464844 -576.910156 L 550.414062 -577.308594 C 550.523438 -576.757812 550.691406 -576.097656 550.914062 -575.320312 C 553.578125 -566.101562 558.964844 -557 567.085938 -548.007812 C 576.285156 -537.824219 586.917969 -530.503906 598.980469 -526.054688 C 604.402344 -524.050781 608.382812 -523.050781 610.914062 -523.050781 C 610.296875 -523.050781 609.8125 -523.039062 609.460938 -523.015625 C 609.589844 -523.023438 609.835938 -523.054688 610.199219 -523.109375 C 612.507812 -523.460938 615.121094 -524.15625 618.046875 -525.199219 C 629 -529.09375 638.835938 -535.691406 647.558594 -544.992188 C 655.304688 -553.257812 660.589844 -561.90625 663.414062 -570.941406 C 663.90625 -572.515625 664.199219 -573.671875 664.300781 -574.414062 C 664.144531 -573.246094 664.066406 -571.527344 664.066406 -569.261719 L 664.066406 -284.628906 L 506.78125 -284.628906 L 506.78125 -441.914062 L 736.957031 -441.914062 L 736.957031 157.285156 L -126.042969 157.285156 L -126.042969 -441.914062 L 107.605469 -441.914062 L 107.605469 -284.628906 L -49.679688 -284.628906 L -49.679688 -680.335938 L 107.605469 -680.335938 L 107.605469 -523.050781 L -126.042969 -523.050781 L -126.042969 -1122.25 L 664.066406 -1122.25 L 664.066406 -829.59375 L 506.78125 -829.59375 L 382.917969 -926.527344 C 438.828125 -997.96875 503.113281 -1052.257812 575.777344 -1089.398438 C 650.324219 -1127.496094 731.457031 -1146.546875 819.179688 -1146.546875 C 888.214844 -1146.546875 950.433594 -1134.976562 1005.84375 -1111.835938 C 1066.640625 -1086.441406 1117.425781 -1048.203125 1158.1875 -997.125 C 1229.105469 -908.265625 1264.566406 -792.832031 1264.566406 -650.832031 L 1264.566406 -284.628906 L 1107.28125 -284.628906 L 1107.28125 -441.914062 L 1340.929688 -441.914062 Z M 1026.359375 -284.628906 L 1183.644531 -284.628906 L 1183.644531 -127.347656 L 949.996094 -127.347656 L 949.996094 -650.832031 C 949.996094 -719.410156 937.4375 -769.433594 912.320312 -800.90625 C 895.789062 -821.621094 864.742188 -831.980469 819.179688 -831.980469 C 781.941406 -831.980469 748.53125 -824.417969 718.941406 -809.292969 C 687.472656 -793.210938 658.039062 -767.664062 630.644531 -732.65625 L 349.496094 -373.414062 L 349.496094 -964.964844 L 506.78125 -964.964844 L 506.78125 -807.679688 L 31.238281 -807.679688 L 31.238281 -964.964844 L 188.523438 -964.964844 L 188.523438 -680.335938 L 31.238281 -680.335938 L 31.238281 -837.621094 L 264.886719 -837.621094 L 264.886719 -127.347656 L 31.238281 -127.347656 L 31.238281 -284.628906 L 188.523438 -284.628906 L 188.523438 0 L 31.238281 0 L 31.238281 -157.285156 L 579.671875 -157.285156 L 579.671875 0 L 422.390625 0 L 422.390625 -284.628906 L 579.671875 -284.628906 L 579.671875 -127.347656 L 349.496094 -127.347656 L 349.496094 -569.261719 C 349.496094 -647.75 372.355469 -711.378906 418.070312 -760.140625 C 444.144531 -787.957031 475.675781 -808.4375 512.664062 -821.589844 C 542.722656 -832.277344 575.472656 -837.621094 610.914062 -837.621094 C 645.84375 -837.621094 678.167969 -832.136719 707.890625 -821.167969 C 744.25 -807.75 775.128906 -786.980469 800.527344 -758.859375 C 843.769531 -710.988281 865.386719 -647.785156 865.386719 -569.261719 L 865.386719 -127.347656 L 635.210938 -127.347656 L 635.210938 -284.628906 L 792.496094 -284.628906 L 792.496094 0 L 635.210938 0 L 635.210938 -157.285156 L 1183.644531 -157.285156 L 1183.644531 0 L 1026.359375 0 Z M 1026.359375 -284.628906 "></path></g></g></g><g fill="#000000" fill-opacity="1"><g transform="translate(1339.501055, 1798.178186)"><g><path d="M 775.789062 181.582031 C 686.386719 181.582031 605.992188 158.992188 534.609375 113.8125 C 473.542969 75.164062 422.953125 30.164062 382.835938 -21.1875 L 506.78125 -118.015625 L 664.066406 -118.015625 L 664.066406 157.285156 L -126.042969 157.285156 L -126.042969 -441.914062 L 107.605469 -441.914062 L 107.605469 -284.628906 L -49.679688 -284.628906 L -49.679688 -1065.628906 L 107.605469 -1065.628906 L 107.605469 -908.34375 L -126.042969 -908.34375 L -126.042969 -1507.542969 L 664.066406 -1507.542969 L 664.066406 -846.949219 L 506.78125 -846.949219 L 382.835938 -943.78125 C 422.953125 -995.128906 473.542969 -1040.128906 534.609375 -1078.777344 C 605.992188 -1123.957031 686.386719 -1146.546875 775.789062 -1146.546875 C 859.335938 -1146.546875 934.304688 -1130.113281 1000.695312 -1097.242188 C 1069.867188 -1062.992188 1127.101562 -1012.445312 1172.402344 -945.59375 C 1250.042969 -831.019531 1288.863281 -676.648438 1288.863281 -482.484375 C 1288.863281 -288.316406 1250.042969 -133.949219 1172.402344 -19.371094 C 1127.101562 47.476562 1069.867188 98.027344 1000.695312 132.277344 C 934.304688 165.148438 859.335938 181.582031 775.789062 181.582031 Z M 775.789062 -132.988281 C 810.261719 -132.988281 838.707031 -138.535156 861.117188 -149.632812 C 880.746094 -159.351562 897.703125 -174.75 911.992188 -195.835938 C 953.527344 -257.128906 974.292969 -352.679688 974.292969 -482.484375 C 974.292969 -612.285156 953.527344 -707.835938 911.992188 -769.128906 C 897.703125 -790.214844 880.746094 -805.617188 861.117188 -815.335938 C 838.707031 -826.429688 810.261719 -831.980469 775.789062 -831.980469 C 747.175781 -831.980469 722.859375 -825.644531 702.839844 -812.972656 C 672.496094 -793.769531 648.457031 -772.816406 630.722656 -750.117188 L 349.496094 -390.144531 L 349.496094 -1350.257812 L 506.78125 -1350.257812 L 506.78125 -1192.972656 L 31.238281 -1192.972656 L 31.238281 -1350.257812 L 188.523438 -1350.257812 L 188.523438 -1065.628906 L 31.238281 -1065.628906 L 31.238281 -1222.910156 L 264.886719 -1222.910156 L 264.886719 -127.347656 L 31.238281 -127.347656 L 31.238281 -284.628906 L 188.523438 -284.628906 L 188.523438 0 L 31.238281 0 L 31.238281 -157.285156 L 506.78125 -157.285156 L 506.78125 0 L 349.496094 0 L 349.496094 -574.820312 L 630.722656 -214.847656 C 648.457031 -192.148438 672.496094 -171.195312 702.839844 -151.992188 C 722.859375 -139.320312 747.175781 -132.988281 775.789062 -132.988281 Z M 607.441406 -441.914062 L 607.292969 -441.792969 C 604.714844 -441.398438 601.847656 -440.640625 598.691406 -439.515625 C 587.289062 -435.453125 577.085938 -428.609375 568.078125 -418.980469 C 559.636719 -409.957031 553.984375 -400.65625 551.121094 -391.078125 C 550.851562 -390.179688 550.644531 -389.386719 550.507812 -388.707031 L 550.492188 -388.726562 C 550.710938 -390.445312 550.820312 -392.773438 550.820312 -395.707031 L 550.820312 -569.261719 C 550.820312 -572.191406 550.710938 -574.519531 550.492188 -576.238281 L 550.507812 -576.257812 C 550.644531 -575.578125 550.851562 -574.785156 551.121094 -573.886719 C 553.984375 -564.3125 559.636719 -555.011719 568.078125 -545.984375 C 577.085938 -536.359375 587.289062 -529.511719 598.691406 -525.449219 C 601.847656 -524.324219 604.714844 -523.566406 607.292969 -523.171875 L 607.441406 -523.050781 L 607.59375 -523.171875 C 610.171875 -523.566406 613.039062 -524.324219 616.195312 -525.449219 C 627.597656 -529.511719 637.800781 -536.359375 646.804688 -545.984375 C 655.25 -555.011719 660.902344 -564.3125 663.765625 -573.886719 C 664.035156 -574.785156 664.238281 -575.578125 664.378906 -576.257812 L 664.390625 -576.238281 C 664.171875 -574.519531 664.066406 -572.191406 664.066406 -569.261719 L 664.066406 -395.707031 C 664.066406 -392.773438 664.171875 -390.445312 664.390625 -388.726562 L 664.378906 -388.707031 C 664.238281 -389.386719 664.035156 -390.179688 663.765625 -391.078125 C 660.902344 -400.65625 655.25 -409.957031 646.804688 -418.980469 C 637.800781 -428.609375 627.597656 -435.453125 616.195312 -439.515625 C 613.039062 -440.640625 610.171875 -441.398438 607.59375 -441.792969 Z M 607.441406 -127.347656 C 572.542969 -127.347656 540.265625 -132.628906 510.609375 -143.195312 C 474.042969 -156.226562 442.867188 -176.519531 417.085938 -204.082031 C 372.027344 -252.25 349.496094 -316.125 349.496094 -395.707031 L 349.496094 -569.261719 C 349.496094 -648.84375 372.027344 -712.71875 417.085938 -760.882812 C 442.867188 -788.445312 474.042969 -808.742188 510.609375 -821.769531 C 540.265625 -832.335938 572.542969 -837.621094 607.441406 -837.621094 C 642.34375 -837.621094 674.621094 -832.335938 704.273438 -821.769531 C 740.839844 -808.742188 772.015625 -788.445312 797.800781 -760.882812 C 842.859375 -712.71875 865.386719 -648.84375 865.386719 -569.261719 L 865.386719 -395.707031 C 865.386719 -316.125 842.859375 -252.25 797.800781 -204.082031 C 772.015625 -176.519531 740.839844 -156.226562 704.273438 -143.195312 C 674.621094 -132.628906 642.34375 -127.347656 607.441406 -127.347656 Z M 607.441406 -127.347656 "></path></g></g></g><g fill="#ffffff" fill-opacity="1"><g transform="translate(131.560197, 1798.178186)"><g><path d="M 1183.640625 -284.625 L 1183.640625 0 L 635.203125 0 L 635.203125 -284.625 L 708.109375 -284.625 L 708.109375 -569.265625 C 708.109375 -607.441406 700.003906 -635.492188 683.796875 -653.421875 C 667.597656 -671.359375 643.300781 -680.328125 610.90625 -680.328125 C 541.488281 -680.328125 506.78125 -643.304688 506.78125 -569.265625 L 506.78125 -284.625 L 579.671875 -284.625 L 579.671875 0 L 31.234375 0 L 31.234375 -284.625 L 107.609375 -284.625 L 107.609375 -680.328125 L 31.234375 -680.328125 L 31.234375 -964.96875 L 506.78125 -964.96875 L 506.78125 -829.59375 C 590.082031 -936.039062 694.210938 -989.265625 819.171875 -989.265625 C 915.210938 -989.265625 987.238281 -959.179688 1035.25 -899.015625 C 1083.269531 -838.847656 1107.28125 -756.117188 1107.28125 -650.828125 L 1107.28125 -284.625 Z M 1183.640625 -284.625 "></path></g></g></g><g fill="#ffffff" fill-opacity="1"><g transform="translate(1339.501055, 1798.178186)"><g><path d="M 775.796875 24.296875 C 716.785156 24.296875 664.425781 9.832031 618.71875 -19.09375 C 573.019531 -48.019531 535.707031 -80.992188 506.78125 -118.015625 L 506.78125 0 L 31.234375 0 L 31.234375 -284.625 L 107.609375 -284.625 L 107.609375 -1065.625 L 31.234375 -1065.625 L 31.234375 -1350.25 L 506.78125 -1350.25 L 506.78125 -846.953125 C 535.707031 -883.972656 573.019531 -916.945312 618.71875 -945.875 C 664.425781 -974.800781 716.785156 -989.265625 775.796875 -989.265625 C 893.804688 -989.265625 982.601562 -945.296875 1042.1875 -857.359375 C 1101.78125 -769.421875 1131.578125 -644.460938 1131.578125 -482.484375 C 1131.578125 -320.492188 1101.78125 -195.53125 1042.1875 -107.59375 C 982.601562 -19.664062 893.804688 24.296875 775.796875 24.296875 Z M 607.4375 -284.625 C 640.988281 -284.625 666.15625 -293.59375 682.9375 -311.53125 C 699.71875 -329.46875 708.109375 -357.523438 708.109375 -395.703125 L 708.109375 -569.265625 C 708.109375 -607.441406 699.71875 -635.492188 682.9375 -653.421875 C 666.15625 -671.359375 640.988281 -680.328125 607.4375 -680.328125 C 573.882812 -680.328125 548.71875 -671.359375 531.9375 -653.421875 C 515.164062 -635.492188 506.78125 -607.441406 506.78125 -569.265625 L 506.78125 -395.703125 C 506.78125 -357.523438 515.164062 -329.46875 531.9375 -311.53125 C 548.71875 -293.59375 573.882812 -284.625 607.4375 -284.625 Z M 607.4375 -284.625 "></path></g></g></g></g></g></svg></svg><style>@media (prefers-color-scheme: light) { :root { filter: none; } }
@media (prefers-color-scheme: dark) { :root { filter: none; } }
</style></svg>